<?xml version="1.0" encoding="UTF-8"?>
<svg id="Layer_2" data-name="Layer 2" xmlns="http://www.w3.org/2000/svg" viewBox="0 0 23.31 29.04">
  <defs>
    <style>
      .cls-1 {
        fill: #fff;
      }
    </style>
  </defs>
  <g id="Layer_1-2" data-name="Layer 1">
    <g>
      <path class="cls-1" d="m10.28,10.78c-.08.54-.17,1.09-.25,1.63-.05.35-.08.69-.07,1.03,0,.31.08.58.25.8.09.12.19.24.35.26.29.05.61,0,.93-.17.21-.11.41-.24.59-.42.26-.25.53-.49.79-.73.11-.11.21-.24.32-.36.09-.1.14-.22.16-.34.05-.23.1-.46.15-.69.06-.3.11-.6.16-.91t0,0c.02-.09.03-.17.05-.26.08-.4.16-.81.24-1.21.04-.2.03-.38-.01-.55-.06-.27-.22-.44-.5-.49-.04,0-.07-.02-.1-.02-.35-.07-.72-.03-1.1.18-.3.17-.58.38-.83.63-.21.21-.41.43-.62.65-.27.29-.45.62-.5.97Zm.71.57c.06-.42.12-.85.2-1.27.03-.15.08-.31.13-.46.06-.16.18-.27.35-.34.41-.16.77-.12,1.08.01.13.05.18.17.22.31.05.21.02.45-.03.68-.08.43-.17.85-.25,1.28h0c-.09.51-.18,1.02-.26,1.52-.02.13-.07.25-.15.37-.05.08-.13.14-.21.17-.22.08-.42.07-.6.01-.39-.14-.59-.43-.59-.87,0-.46.06-.94.12-1.41Z"/>
      <path class="cls-1" d="m15.65,8.91c.17.15.35.27.58.3.27.04.51-.03.71-.29.11-.14.22-.27.33-.41.09-.12.17-.24.25-.37.04-.07.06-.14.02-.22-.06.04-.11.07-.15.11-.13.12-.27.16-.43.16-.12,0-.24-.02-.34-.07-.16-.08-.32-.17-.48-.27-.12-.07-.13-.07-.25.03-.01.01-.03.03-.04.04-.23.14-.41.34-.58.56-.12.16-.23.33-.35.48-.11.14-.19.3-.25.47-.07.2-.1.41,0,.58.06.11.13.2.22.28.24.21.5.41.75.61.29.23.56.47.77.79.06.09.1.19.14.29.03.08.02.15-.05.24-.25.31-.52.57-.88.68-.27.08-.51.09-.69-.13-.02-.02-.04-.04-.06-.06-.24-.26-.38-.59-.43-.98,0-.06,0-.13.01-.19.03-.1.07-.19.11-.29.02-.06.07-.11.01-.18-.06.05-.12.09-.16.14-.06.07-.12.14-.17.22-.17.24-.35.48-.51.74-.21.33-.25.66-.06.95.17.26.34.53.58.73.07.06.15.11.24.14.37.11.73,0,1.07-.31.17-.15.33-.31.48-.48.25-.28.49-.55.68-.89.01-.02.03-.04.05-.06.13-.14.25-.28.38-.42.28-.31.33-.63.15-.92-.12-.19-.26-.37-.41-.53-.21-.21-.44-.39-.66-.58-.2-.17-.4-.34-.6-.51-.12-.1-.12-.28-.15-.43,0-.02.02-.05.03-.09.06.05.11.1.16.15Z"/>
      <path class="cls-1" d="m16.4,5.95c.38.11.77.22,1.15.33.05.01.1.03.16.05,0,0,.52.12.53.12.52.13,1.06.23,1.57.4.02,0,.05,0,.07.02.01,0,.03,0,.04.01,0,0,0,0,.01,0,0,0,0,0,0,0,.01,0,.03,0,.04,0,0,0,0,0,0,0,0,0,0,0,0,0,.05.02.11.04.17.06.35.11.68.23.99.39.25.12.49.26.7.44.21.18.37.4.49.67.33.72.12,1.67-.4,2.51-.45.72-1.26,1.66-2.12,1.8-.32.05-.63,0-.87-.14-.26-.16-.36-.44-.4-.74-.02-.14-.03-.28-.02-.43,0-.06.03-.1.09-.13.42-.24.78-.56,1.13-.9.21-.21.4-.44.56-.68.41-.59.42-1.27.32-1.81-.04-.23-.17-.38-.37-.47-.06-.03-.15-.03-.23-.02-.12.02-.24.05-.36.09-.06.02-.11.04-.16.07-.47.29-.91.67-1.23,1.11-.25.35-.32.72-.42,1.09-.16.6-.29,1.22-.37,1.81-.09.67-.12,1.47.39,1.84.39.28.93.21,1.48.03.39-.13.78-.32,1.16-.55.82-.5,1.59-1.21,2.12-2.03.23-.35.4-.71.52-1.08.78-2.47-1.58-3.24-3.29-3.62-.33-.07-.66-.15-.99-.22h0s-.1-.02-.15-.04c0,0,0,0,0,0l-.55-.13s-.05,0-.08,0c-.35-.11-.71-.21-1.06-.32-1.37-.45-3.75-1.45-2.78-3.67.57-1.32,2.04-1.94,3.04-1.67-.66-.35-1.77-.07-2.57.66-1.15,1.04-1.25,2.35-.84,3.24.47,1.01,1.47,1.58,2.55,1.9Zm2.16,5c.08-.43.17-.85.25-1.28.04-.19.07-.37.12-.56.05-.2.06-.79.39-.85.25-.05.33.37.34.55.03.28-.03.59-.07.89-.09.62-.52.98-1.04,1.41,0-.07,0-.11.01-.16Z"/>
      <polygon class="cls-1" points="16.3 16.19 15.84 16.61 15.36 17.05 15.65 17.34 16.03 17.72 16.57 17.23 16.97 16.85 16.63 16.51 16.3 16.19"/>
      <path class="cls-1" d="m10.32,17.15c-.22.48-.37.96-.36,1.43,0,.06,0,.13.02.18.03.08.13.07.2-.02.04-.04.07-.09.09-.14.05-.12.1-.25.12-.37.13-.64.35-1.27.78-1.88.17-.24.29-.5.55-.7.08-.06.08-.13,0-.15-.06-.01-.14,0-.21,0-.39.08-2.31.4-2.87.41-.13,0-.27.02-.41.04-.18.03-.35.08-.51.24-.17.17-.34.33-.53.48-.27.21-.5.44-.68.72-.18.28-.33.57-.39.87-.08.4-.14.79-.2,1.19-.07.4-.13.81-.2,1.21-.06.37-.13.73-.18,1.1-.05.39-.09.77-.12,1.16-.02.23-.04.47-.02.69.03.25.06.5.18.71.1.18.19.37.33.53.11.13.27.21.42.3.27.17.6.24.99.18.22-.04.44-.1.64-.27.12-.1.25-.18.37-.27.12-.09.24-.16.36-.26.31-.25.58-.54.85-.82.28-.3.52-.61.68-.96.02-.04.02-.09.02-.13-.08-.01-.14.04-.18.09-.17.2-.34.4-.51.6-.28.32-.57.65-.89.95-.2.18-.42.3-.66.31-.3.02-.56-.05-.78-.19-.34-.22-.54-.55-.66-.94-.12-.39-.12-.81-.06-1.26.02-.13.04-.27.05-.4.05-.44.1-.87.17-1.31.07-.45.17-.9.25-1.35.06-.38.11-.75.17-1.13.03-.18.06-.36.11-.54.05-.17.13-.34.21-.5.07-.15.09-.15.25-.15.5-.01,1-.04,1.51-.14.42-.08.83-.18,1.25-.27.07-.01.14-.02.24-.03-.03.06-.04.1-.06.13-.11.22-.24.43-.34.65Z"/>
      <path class="cls-1" d="m14.54,19.14c-.08-.05-.14-.11-.2-.19-.15-.2-.22-.45-.24-.72,0-.12-.05-.2-.17-.28-.02.03-.03.05-.05.08-.22.26-.44.51-.65.77-.06.07-.13.14-.17.22-.19.33-.45.61-.68.91-.01.02-.03.03-.06.06,0-.04,0-.06,0-.08.03-.2.05-.41.08-.61.03-.19.06-.38.09-.57.02-.13.02-.26,0-.38-.09.04-.11.1-.12.16-.03.1-.08.2-.16.28-.14.14-.29.28-.43.42-.18.17-.4.29-.61.41-.1.06-.11.09-.06.15.16.2.19.47.17.75-.03.41-.1.84-.17,1.26-.15.86-.31,1.73-.4,2.58-.02.15-.05.3-.07.45,0,.05-.03.11.04.12.15-.15.3-.3.45-.45.15-.15.31-.3.47-.43.16-.13.33-.25.5-.37-.07-.13-.14-.25-.2-.39-.04-.1-.07-.2-.06-.31,0-.18.04-.38.07-.57.12-.65.26-1.3.34-1.94,0-.05.04-.1.07-.14.1-.12.2-.24.3-.37.15-.18.31-.37.48-.58.02.06.04.1.05.15.08.24.2.44.36.62.04.05.09.09.15.13.1.06.16.04.27-.08.1-.11.2-.23.29-.35.11-.14.23-.28.34-.43.1-.13.09-.2-.01-.26Z"/>
      <path class="cls-1" d="m15.08,20.13l-.49,2.79-.25,1.4s.06-.07.15-.18c.32-.37,1.06-1.18,1.37-1.23h0s-.12-.14-.18-.4c-.03-.15-.05-.34-.02-.59,0-.05.02-.11.03-.16v-.03c.04-.22.1-.55.17-.94.19-1.06.44-2.51.51-2.91.01-.07.02-.1.02-.1,0,0-.02.03-.06.09-.06.08-.15.22-.26.37-.01.02-.02.04-.04.06-.11.16-.22.31-.36.45,0,0,0,0,0,0-.25.31-.52.6-.7.7,0,0,.03.1.06.23,0,0,0,0,0,0,.01.03.03.06.04.1.04.1.03.22,0,.34,0,0,0,0,0,.01Z"/>
      <path class="cls-1" d="m4.7,8.18c.04-.14.09-.28.12-.41.02-.09.02-.19-.05-.23-.05-.03-.13,0-.2.03-.07.04-.13.09-.19.14,0,0,0-.06.03-.13h0s0-.03,0-.03h0s.02-.07.02-.1v-.04s.01,0,.01,0h0c.02-.08.03-.17.07-.25.02-.03.04-.06.07-.08.06-.05.06-.06.08-.12,0,0-.16.11-.18.12-.06.05-.11.11-.16.17-.03.03-.05.07-.07.1,0,.02-.02.03-.02.05l-.05.19v.05s-.01,0-.01,0c-.02.06-.03.13-.05.19-.03.14-.07.28-.1.42-.04.17-.09.34-.13.52,0,.04-.02.07-.03.11,0,0,0,.01,0,.02,0,0,.01,0,.02-.01.05-.04.09-.08.14-.12.05-.04.09-.07.14-.11.01-.01.02-.02.02-.03,0-.01,0-.03,0-.04,0-.05,0-.11.01-.16.03-.12.06-.24.09-.35.02-.08.05-.37.22-.33.04.01.06.05.07.1,0,.05-.02.1-.03.15-.09.29-.17.57-.22.85.11-.09.22-.17.33-.26-.02-.11,0-.24.03-.37,0,0,0-.01,0-.02Z"/>
      <path class="cls-1" d="m5.03,8.25c.09-.05.17-.11.25-.18.05-.04.09-.09.13-.14.04-.05.07-.1.08-.16.01-.07.02-.14.01-.2,0-.05-.03-.08-.07-.09-.01,0-.03,0-.05,0-.03,0-.05.01-.08.02-.01,0-.02,0-.04.01-.12.07-.23.16-.31.27-.03.04-.04.07-.05.1-.02.05-.03.11-.04.16-.03.09-.06.19-.08.28-.02.08-.03.16-.01.23.01.07.05.12.11.16.05.03.11.02.19-.02.02-.02.05-.03.07-.04.05-.03.1-.06.14-.1.04-.03.06-.07.06-.11-.01,0-.02.01-.03.02-.02.02-.03.03-.05.05-.03.03-.07.04-.1.04-.03,0-.05,0-.07-.02-.07-.05-.08-.13-.07-.22,0-.01,0-.02.02-.03Zm0-.07c.02-.09.05-.17.07-.26.01-.04.02-.07.03-.11.01-.05.03-.09.05-.14,0-.01.01-.02.02-.04.02,0,.04.02.05.03.02.03.03.06.03.09,0,.05,0,.11-.01.17-.01.06-.05.12-.1.18,0,0,0,0,0,0-.04.03-.09.06-.14.1,0-.01,0-.02,0-.03Z"/>
      <path class="cls-1" d="m4.19,6.92c-.07.1-.15.2-.27.28-.02.01-.02.02-.02.03,0,.01,0,.03,0,.04h0s0,.02,0,.02c-.01.12-.06.26-.09.38-.05.2-.1.4-.15.6-.03.1-.05.2-.07.3-.02.1-.05.19-.08.29,0,.02-.01.04-.02.06,0,0,0,.01,0,.02.02,0,.03-.02.04-.03.03-.03.06-.06.09-.09.07-.05.14-.1.2-.14.02-.01.02-.02.02-.03,0-.01-.02-.03-.02-.05,0-.05,0-.09,0-.14.02-.12.05-.24.08-.36.1-.41.22-.81.32-1.22,0,0,0-.02,0-.03.27.02.55.02.85-.03.16-.03.32-.08.48-.16.16-.08.31-.2.41-.34-.14.11-.28.19-.43.24-.14.05-.29.07-.43.08-.28.02-.55,0-.83-.02-.14,0-.28-.02-.42-.02-.15,0-.31.01-.48.07-.17.06-.34.16-.47.29-.13.13-.24.27-.31.41.21-.27.5-.47.77-.54.14-.03.27-.04.4-.03l.41.03s.02,0,.03,0c0,0,0,0,0,0-.01.01-.02.03-.03.05Z"/>
      <path class="cls-1" d="m20.59,24.02c.11.04.2.1.28.18.02.02.04.04.06.06.02.02.04.04.05.06.03.05.06.09.08.14.09.2.11.43.1.64-.01.22-.06.44-.14.64-.08.2-.19.39-.32.56-.26.35-.62.61-1,.82-.19.1-.4.2-.6.27-.2.08-.41.14-.62.19-.42.1-.86.14-1.3.13-.22,0-.44-.02-.65-.04-.11-.01-.22-.03-.33-.04-.11-.02-.22-.03-.32-.05-.11-.02-.22-.04-.32-.06l-.32-.07c-.21-.06-.43-.11-.64-.17-.43-.12-.85-.26-1.27-.4-.85-.28-1.72-.55-2.6-.76-.44-.11-.89-.21-1.34-.27-.45-.07-.91-.1-1.36-.08-.45.02-.91.1-1.33.26-.43.15-.83.38-1.18.67-.35.28-.65.64-.85,1.04-.1.2-.17.42-.2.64-.03.22-.02.45.04.67-.05-.22-.07-.45-.03-.67.03-.22.1-.44.2-.64.1-.2.23-.39.38-.56.15-.17.31-.33.49-.46.35-.28.75-.49,1.18-.63.42-.14.87-.21,1.31-.22.45-.01.89.04,1.33.14.44.1.86.24,1.28.4.84.32,1.66.68,2.52.98.86.29,1.74.56,2.65.69.11.02.23.03.34.04.11.01.23.02.35.03.23.01.46.01.7,0,.46-.02.93-.09,1.38-.22.22-.07.44-.15.65-.24.21-.1.41-.2.61-.32.39-.24.76-.55,1.03-.93.07-.1.12-.2.18-.3.05-.11.1-.21.13-.33.07-.22.11-.45.11-.68,0-.23-.04-.47-.15-.67-.11-.21-.3-.36-.52-.42Z"/>
      <path class="cls-1" d="m6.83,15.01c-.18.26-.41.49-.66.68-.25.19-.53.34-.83.46-.59.23-1.23.29-1.85.22-.62-.07-1.23-.28-1.75-.62-.26-.17-.5-.37-.71-.61-.05-.06-.1-.12-.15-.18l-.13-.19-.12-.2c-.04-.07-.07-.14-.11-.21-.27-.56-.4-1.19-.35-1.81.04-.62.26-1.23.65-1.72.17-.21.38-.41.6-.57.05.11.11.22.19.33.05.08.13.16.22.22,0,0,0,0,0,0,.09.06.86.56,1.99-.24,0,0,0,0,0,0,0,0,0-.02,0-.02-.02-.13-.08-.26-.16-.37-.1-.13-.22-.24-.37-.31-.29-.14-.63-.17-.95-.12-.09.01-.18.03-.26.06,0,0,0-.01-.01-.02-.01-.03-.03-.06-.04-.09,0,0,0-.02-.01-.03,0,0,0-.02,0-.02-.21-.64.05-1.57.4-2.25.13-.26.3-.49.51-.71.79-.84,1.84-1.41,2.84-1.73,1.44-.46,2.85-.38,3.58.66.9,1.28.11,4.42-2.21,4.54l-.46.06s0,0,0,0c-.04.04-.08.08-.13.13-.15.15-.3.31-.48.49.01-.08.01-.13.02-.18.03-.18.07-.36.11-.53.06-.31.12-.62.18-.94-.01,0-.02,0-.02,0l.53-3c-.03.08-.07.17-.1.25-.07.19-.14.38-.27.55-.05.07-.11.14-.17.21-.15.18-.32.36-.52.51-.04.03-.09.07-.13.1-.05.04-.07.09-.06.14.03.16.04.33.07.49.04.22-.06.5-.11.75-.27,1.53-.67,3.09-.86,4.61-.02.2-.1.4-.22.59l-.08.1h0s-.03.04-.03.04l-.6.07-.94.9,2.41-.3.78-.88-1.28.16.24-.27h0s.03-.04.03-.04c.03-.04.07-.08.11-.13.27-.3.46-.62.51-.99.07-.46.15-.92.23-1.39.02-.09.03-.19.05-.3.04,0,.09,0,.15-.03.07-.02.15-.05.24-.08.14.33.29.66.43,1,.46,1.1.97,2.21,2.05,2.75.05.03.11.05.16.08.05.02.11.05.17.07.07.03.14.05.21.07h0s0,0,0,0c.21.06.44.12.68.15.47.06.97.02,1.42-.19.03-.01.05-.02.08-.03.08-.03.15-.06.23-.1.03-.02.07-.03.1-.05.03-.02.07-.04.1-.06.02,0,.03-.02.05-.03,0,0,0,0,0,0,0,0,0,0,0,0,0,0,.02-.01.03-.02.05-.04.1-.08.15-.12.26-.21.52-.49.75-.84,0,0-1.98,1.74-3.51.35h0c-.62-.4-1.01-1.01-1.34-1.72-.27-.57-.52-1.17-.77-1.76.11-.06.21-.1.27-.14.02-.01.04-.02.05-.03,0,0,.03-.01.06-.03,0,0,0,0,0,0,.25-.15,1.12-.72,1.21-.78,1.43-1.02,2.46-3.14,1.79-4.38-.66-1.23-1.98-1.68-3.58-1.45-.07,0-.13.02-.2.03-.23.04-.46.1-.69.18C3.94,4.99.47,7.89,1.38,10.16c-.25.16-.47.36-.66.59-.05.06-.1.13-.15.19l-.13.21c-.04.07-.08.14-.11.22-.04.07-.06.15-.1.23-.12.3-.19.63-.21.95-.05.65.08,1.31.35,1.9.04.07.07.15.11.22l.13.21.14.2c.05.07.1.13.15.19.22.24.47.45.74.63.55.35,1.18.56,1.83.62.64.06,1.3-.02,1.9-.27.59-.25,1.12-.67,1.45-1.22Zm-4.69-5.12c.07-.02.15-.04.23-.06.3-.06.63-.05.92.08.14.06.27.16.37.28.08.1.15.22.17.35-.22,0-1.28-.07-1.69-.66h0Z"/>
      <path class="cls-1" d="m21.42,14.28c-.18-.42-.67-.66-1.11-.61-.23.02-.42.13-.61.25-.69.46-1.27,1.12-1.57,1.9-.04.11-.08.22-.11.33-.59-.31-1.13-.72-1.71-1.07-.31-.19-.63-.37-.96-.51-.34-.13-.69-.22-1.04-.25-.35-.03-.71,0-1.05.1-.34.11-.67.29-.92.57-.26.28-.44.64-.52,1.04-.08.39-.05.82.11,1.19.08.18.19.34.32.48.13.13.27.26.43.36.15.1.31.19.49.23.17.05.35.05.52,0h0c-.17.04-.35.04-.51,0-.17-.05-.33-.13-.48-.24-.15-.1-.29-.22-.42-.36-.13-.14-.23-.3-.31-.48-.15-.36-.17-.77-.08-1.15.09-.38.27-.72.52-.98.25-.26.56-.44.89-.54.33-.1.68-.13,1.02-.1.34.03.69.11,1.01.24.33.13.64.31.95.5.57.35,1.13.75,1.73,1.06-.03.12-.06.24-.08.37-.18,1.14-.95,6.07-1.15,7.36,0,0,.01,0,.02,0,.07,0,.15,0,.22-.02.5-.05.93-.09,1.39-.33,1.84-.98,2.37-3.46,2.1-5.37-.01-.07-.02-.13-.03-.2-.09-.45-.36-.35-.56-.2-.11.08-.2.18-.21.2,0,0,0,0,0,0-.29.27-.58.54-.86.81,0,0-.02.02-.03.03-.1.12-.23.22-.35.32-.01,0-.02,0-.03,0,0-.06.02-.11.03-.17.05-.28.1-.56.14-.84.06-.41.1-.82.16-1.23.02-.13.04-.26.06-.39.12.03.24.06.36.08.35.05.71.04,1.05-.05.09-.02.17-.06.25-.09.04-.02.08-.04.12-.06.04-.03.08-.05.12-.07.15-.11.28-.24.39-.39.11-.15.21-.32.28-.5.07-.18.12-.38.13-.58.01-.2-.01-.41-.09-.59Zm-2.97,5.17c.3-.26.6-.53.9-.79.02-.01.03-.03.07-.05.02.08.03.15.05.22.02.07.03.15.04.22.08.52.03,1.05-.04,1.6-.07.5-.17,1-.39,1.49-.02.05-.04.1-.07.15-.07.13-.14.26-.25.36-.14.13-.3.16-.46.18-.08,0-.17.01-.25.02-.08,0-.16.01-.24.02,0-.04,0-.08,0-.11.08-.43.15-.85.24-1.28.13-.63.24-1.25.34-1.88,0-.05.01-.1.07-.15Zm3.04-4.58c-.01.2-.07.39-.14.57-.07.18-.17.34-.28.49-.11.15-.24.28-.39.38-.14.1-.31.17-.48.21-.33.09-.69.1-1.03.04-.12-.02-.24-.05-.35-.08.05-.3.1-.59.16-.89,0-.01,0-.03,0-.04.09-.39.27-.77.53-1.09.22-.28.5-.58.86-.67,0,0,0,0,0,0,.03-.01.27-.07.54.04.1.04.2.1.3.2,0,0,0,0,0,0l.02.02c.06.07.11.15.15.24.08.18.1.38.08.58Z"/>
    </g>
  </g>
</svg>